<svg width="26" height="28" viewBox="0 0 26 28" fill="none" xmlns="http://www.w3.org/2000/svg">
<path d="M2.13837 14.2244C1.46577 18.35 4.07012 22.0665 8.04499 23.7763C7.23668 24.8288 8.03964 26.5085 9.34368 26.4688C9.34363 26.4689 16.6561 26.4689 16.6561 26.4689C17.9586 26.5041 18.7673 24.8351 17.9548 23.7763C21.9295 22.0666 24.5339 18.3502 23.8614 14.2248C25.6734 14.0719 25.5772 11.3197 23.7655 11.2814H21.5432C21.0095 11.2911 21.009 12.1154 21.5433 12.1251C21.5432 12.1251 23.7655 12.1251 23.7655 12.1251C24.5662 12.1389 24.567 13.3799 23.7655 13.3907H20.3733C19.8406 13.3993 19.8384 14.2253 20.3733 14.2345C20.3733 14.2345 23.0391 14.2345 23.0391 14.2345C23.9472 19.5539 19.0618 23.9107 12.9999 23.9376C6.93748 23.9106 2.05323 19.5541 2.96067 14.2345H13.3167C13.8479 14.2258 13.8529 13.4004 13.3166 13.3907H2.23426C1.43785 13.3773 1.42992 12.1403 2.23428 12.1251C2.72102 12.1251 14.0863 12.1251 14.9823 12.1251C15.5134 12.1166 15.5186 11.291 14.9823 11.2814H4.11252C3.71571 9.66169 5.53419 8.3089 7.04365 8.8725C7.24316 8.94004 7.46136 8.83828 7.54407 8.63661C8.38543 6.42349 11.5704 5.95898 13.0503 7.77378C13.1955 7.94344 13.4452 7.96301 13.6134 7.81696C14.1756 7.33061 14.8955 7.06261 15.6405 7.06261C16.2283 7.06261 16.7974 7.22535 17.2865 7.5329C17.478 7.65423 17.7281 7.58996 17.8443 7.39076C17.9608 7.19157 17.8995 6.93222 17.7075 6.8113C16.4161 5.99907 14.6459 6.04747 13.3936 6.93366C11.5503 5.06695 8.10498 5.60078 6.94978 7.97496C4.97638 7.50996 2.93288 9.24651 3.28703 11.2814H2.23426C0.414393 11.3355 0.328248 14.0482 2.13837 14.2244ZM8.87971 24.0994C11.3949 25.0013 14.6049 25.0013 17.1201 24.0994C17.7689 24.5382 17.4312 25.6451 16.6561 25.6251C16.6561 25.6251 9.34363 25.6251 9.34363 25.6251C8.56838 25.641 8.22873 24.5422 8.87971 24.0994Z" fill="#F4A100"/>
<path d="M16.1579 13.8049L16.5097 14.0159L16.0916 14.768C13.3486 13.4854 10.2764 16.1879 11.0957 19.2284C11.5619 21.2101 13.6949 22.4834 15.5735 21.9132C18.5182 21.1301 19.2371 17.015 16.7953 15.1899L17.2135 14.4378L17.5651 14.6487C18.1279 15.0011 18.9134 14.7814 19.2302 14.1854C19.2302 14.1854 24.7145 4.32078 24.7145 4.32078C25.9824 1.86721 22.6146 -0.160799 21.1961 2.21143C21.1962 2.2114 15.7118 12.076 15.7118 12.076C15.3758 12.6804 15.5759 13.456 16.1579 13.8049ZM14.8958 15.3106C13.6885 16.2615 12.4872 18.3994 12.3128 19.9587C10.876 17.9566 12.546 15.0123 14.8958 15.3106ZM13.9664 20.4342C13.503 20.8301 13.2554 20.8343 13.2055 20.803C12.837 20.1432 13.4587 18.6812 13.9237 17.8239C14.8178 16.2751 15.6549 15.6249 16.049 15.6881C16.2533 15.8105 16.2545 17.0065 15.3309 18.6676C14.9207 19.4055 14.4359 20.0329 13.9664 20.4342ZM16.941 16.5341C18.3493 18.5268 16.7684 21.452 14.3602 21.1842C15.5675 20.2407 16.7547 18.097 16.941 16.5341ZM16.4156 12.4979L21.9 2.63328C22.7336 1.21218 24.7797 2.42765 24.0107 3.89893C24.0107 3.8989 18.5264 13.7635 18.5264 13.7635C18.4211 13.962 18.1586 14.0359 17.9716 13.9178L17.2682 13.4961C17.2677 13.4959 16.5642 13.0741 16.5642 13.0741C16.3702 12.9579 16.3035 12.6994 16.4156 12.4979Z" fill="#F4A100"/>
</svg>
