<svg width="25" height="26" viewBox="0 0 25 26" fill="none" xmlns="http://www.w3.org/2000/svg">
<path d="M23.4749 12.3955H2.38114C2.10491 12.3955 1.87891 12.6299 1.87891 12.9163V14.4788C1.87891 20.2236 6.38393 24.8955 11.9235 24.8955H13.9325C19.4721 24.8955 23.9771 20.2236 23.9771 14.4788V12.9163C23.9771 12.6299 23.7511 12.3955 23.4749 12.3955ZM22.9727 14.4788C22.9727 19.6455 18.9146 23.8538 13.9325 23.8538H11.9235C6.94141 23.8538 2.88337 19.6455 2.88337 14.4788V13.4372H22.9727V14.4788Z" fill="#F4A100"/>
<path d="M7.05325 8.31252L8.03762 8.47918C8.06273 8.47918 8.09287 8.48439 8.11798 8.48439C8.35905 8.48439 8.56999 8.30731 8.61017 8.0521C8.76586 7.13543 8.55994 6.20835 8.03762 5.44273C7.49521 4.65106 6.68662 4.13023 5.74744 3.96877L4.76307 3.8021C4.49186 3.75523 4.23572 3.94273 4.1855 4.22398C4.02981 5.14064 4.23572 6.06773 4.75805 6.83335C5.30046 7.62502 6.10905 8.14585 7.04822 8.30731L7.05325 8.31252ZM5.58673 5.00002C6.2547 5.1146 6.83729 5.48439 7.21898 6.04689C7.48517 6.43752 7.63584 6.89064 7.65593 7.35939L7.21396 7.28648C6.54599 7.17189 5.9634 6.8021 5.58171 6.2396C5.31552 5.84898 5.16485 5.39585 5.14476 4.9271L5.58171 5.00002H5.58673Z" fill="#F4A100"/>
<path d="M9.85417 10.802C10.0249 10.8229 10.1907 10.8333 10.3564 10.8333C12.3151 10.8333 14.0227 9.37496 14.2839 7.38016L14.4295 6.24475C14.4496 6.10933 14.4094 5.96871 14.3291 5.85933C14.2487 5.74996 14.1282 5.67704 13.9926 5.66141C11.833 5.39058 9.84413 6.92183 9.56288 9.08329L9.41723 10.2187C9.39714 10.3541 9.43732 10.4947 9.51767 10.6041C9.59803 10.7135 9.71857 10.7864 9.85417 10.802ZM10.5623 9.21871C10.7481 7.79162 11.9535 6.73433 13.3648 6.67183L13.2894 7.24475C13.1036 8.67183 11.8983 9.72912 10.487 9.79162L10.5623 9.21871Z" fill="#F4A100"/>
<path d="M16.4381 11.8903C16.5084 11.9268 16.5888 11.9476 16.6641 11.9476C16.8499 11.9476 17.0257 11.8435 17.1111 11.6612L20.9984 3.65596C21.2244 3.12991 21.807 2.88512 22.3243 3.10387C22.7713 3.29137 23.0374 3.78096 22.9671 4.23408L21.3299 11.2862C21.2646 11.5674 21.4303 11.8487 21.7015 11.9164C21.9727 11.9841 22.2439 11.8122 22.3092 11.531L23.9515 4.44241C24.1072 3.47366 23.5799 2.49971 22.7009 2.13512C21.6864 1.71325 20.5363 2.19241 20.0994 3.20804L16.2221 11.1924C16.0966 11.4476 16.197 11.7601 16.4431 11.8903H16.4381Z" fill="#F4A100"/>
<path d="M8.91044 18.6455C9.18666 18.6455 9.41267 18.4111 9.41267 18.1247V17.6038C9.41267 17.3174 9.18666 17.083 8.91044 17.083C8.63421 17.083 8.4082 17.3174 8.4082 17.6038V18.1247C8.4082 18.4111 8.63421 18.6455 8.91044 18.6455Z" fill="#F4A100"/>
<path d="M8.91044 19.6875C8.63421 19.6875 8.4082 19.9219 8.4082 20.2083V20.7292C8.4082 21.0156 8.63421 21.25 8.91044 21.25C9.18666 21.25 9.41267 21.0156 9.41267 20.7292V20.2083C9.41267 19.9219 9.18666 19.6875 8.91044 19.6875Z" fill="#F4A100"/>
<path d="M7.40262 19.6872H7.90485C8.18108 19.6872 8.40709 19.4528 8.40709 19.1663C8.40709 18.8799 8.18108 18.6455 7.90485 18.6455H7.40262C7.1264 18.6455 6.90039 18.8799 6.90039 19.1663C6.90039 19.4528 7.1264 19.6872 7.40262 19.6872Z" fill="#F4A100"/>
<path d="M9.91434 19.6872H10.4166C10.6928 19.6872 10.9188 19.4528 10.9188 19.1663C10.9188 18.8799 10.6928 18.6455 10.4166 18.6455H9.91434C9.63811 18.6455 9.41211 18.8799 9.41211 19.1663C9.41211 19.4528 9.63811 19.6872 9.91434 19.6872Z" fill="#F4A100"/>
<path d="M17.4475 16.0415C17.7238 16.0415 17.9498 15.8071 17.9498 15.5207V14.9998C17.9498 14.7134 17.7238 14.479 17.4475 14.479C17.1713 14.479 16.9453 14.7134 16.9453 14.9998V15.5207C16.9453 15.8071 17.1713 16.0415 17.4475 16.0415Z" fill="#F4A100"/>
<path d="M17.4475 17.083C17.1713 17.083 16.9453 17.3174 16.9453 17.6038V18.1247C16.9453 18.4111 17.1713 18.6455 17.4475 18.6455C17.7238 18.6455 17.9498 18.4111 17.9498 18.1247V17.6038C17.9498 17.3174 17.7238 17.083 17.4475 17.083Z" fill="#F4A100"/>
<path d="M15.9417 17.0832H16.4439C16.7201 17.0832 16.9461 16.8488 16.9461 16.5623C16.9461 16.2759 16.7201 16.0415 16.4439 16.0415H15.9417C15.6655 16.0415 15.4395 16.2759 15.4395 16.5623C15.4395 16.8488 15.6655 17.0832 15.9417 17.0832Z" fill="#F4A100"/>
<path d="M18.4534 17.0832H18.9556C19.2319 17.0832 19.4579 16.8488 19.4579 16.5623C19.4579 16.2759 19.2319 16.0415 18.9556 16.0415H18.4534C18.1772 16.0415 17.9512 16.2759 17.9512 16.5623C17.9512 16.8488 18.1772 17.0832 18.4534 17.0832Z" fill="#F4A100"/>
</svg>
