<svg width="31" height="31" viewBox="0 0 31 31" fill="none" xmlns="http://www.w3.org/2000/svg">
<g clip-path="url(#clip0_1092_4)">
<path d="M24.9301 10.9298C25.0667 11.7015 24.9673 12.4758 24.6507 13.1093C24.3981 13.6156 24.019 14.0001 23.5687 14.2183C23.3991 14.3005 23.2223 14.3582 23.0359 14.3913C22.3579 14.5095 21.6464 14.2703 21.0842 13.7344C20.5708 13.2463 20.2155 12.5515 20.0788 11.7796C19.944 11.007 20.0434 10.2326 20.3581 9.60011C20.7053 8.90468 21.2933 8.43753 21.9729 8.31807C22.651 8.19986 23.3644 8.43814 23.9266 8.97407C24.4381 9.46313 24.7953 10.157 24.9301 10.9298ZM11.5004 15.3198C12.209 14.9765 12.6943 14.2543 12.8319 13.3379C12.9573 12.5067 12.7968 11.5753 12.3799 10.7149C11.9626 9.8538 11.331 9.15074 10.601 8.73409C9.7965 8.27444 8.9289 8.20782 8.22042 8.55115C7.51001 8.89541 7.02469 9.61758 6.88699 10.5339C6.76349 11.3641 6.92396 12.2955 7.34126 13.1566C7.75819 14.017 8.38975 14.7201 9.11793 15.1376C9.92249 15.5975 10.7901 15.664 11.5004 15.3198ZM17.6283 12.3503C18.3387 12.0061 18.824 11.2839 18.9616 10.3675C19.0851 9.5372 18.9246 8.60585 18.5077 7.74547C18.0904 6.88433 17.4588 6.18126 16.7307 5.7637C15.9262 5.30405 15.0586 5.23743 14.3482 5.58167C13.6397 5.92501 13.1544 6.64721 13.0167 7.56346C12.8913 8.39464 13.0518 9.32599 13.4691 10.1871C13.886 11.0475 14.5176 11.7506 15.2476 12.1672C16.0522 12.6271 16.9197 12.6937 17.6283 12.3503ZM9.53426 16.8899C9.01121 16.305 8.34183 15.9032 7.65029 15.7583C6.88941 15.5998 6.1584 15.7718 5.64343 16.2312C5.12867 16.691 4.87544 17.3977 4.9477 18.1711C5.01453 18.8756 5.33783 19.5859 5.86081 20.1706C6.38185 20.756 7.05122 21.1578 7.74455 21.3019C8.29846 21.4174 8.83515 21.3581 9.2855 21.1398C9.4532 21.0586 9.60994 20.9547 9.74953 20.8298C10.2643 20.37 10.5175 19.6633 10.4452 18.89C10.3804 18.1845 10.0552 17.4751 9.53426 16.8899ZM19.3054 14.1981C17.7468 13.6131 16.1459 13.6513 14.793 14.3069C13.4401 14.9625 12.4161 16.1963 11.9133 17.7803C11.4312 19.292 11.4413 21.0606 11.94 22.762C12.2587 23.847 13.0321 24.6652 14.0647 25.005C15.139 25.3589 16.1985 25.1109 16.9721 24.3256C17.544 23.7436 18.2126 23.2652 18.9588 22.9036C19.705 22.542 20.4949 22.3137 21.3061 22.2254C21.644 22.1882 21.9588 22.0983 22.2433 21.9604C22.8821 21.6508 23.3714 21.1001 23.639 20.3655C24.014 19.3435 23.8511 18.2295 23.197 17.307C22.1706 15.8612 20.7887 14.7574 19.3054 14.1981Z" fill="#FF9C07"/>
</g>
<defs>
<clipPath id="clip0_1092_4">
<rect width="22.8264" height="22.8264" fill="white" transform="translate(0 9.9541) rotate(-25.8544)"/>
</clipPath>
</defs>
</svg>
