<svg width="26" height="25" viewBox="0 0 26 25" fill="none" xmlns="http://www.w3.org/2000/svg">
<g clip-path="url(#clip0_1101_117)">
<path d="M9.41655 9.84775C9.6876 9.84775 9.90732 9.62803 9.90732 9.35698C9.90732 9.08594 9.6876 8.86621 9.41655 8.86621C9.14551 8.86621 8.92578 9.08594 8.92578 9.35698C8.92578 9.62803 9.14551 9.84775 9.41655 9.84775Z" fill="#F4A100"/>
<path d="M6.02644 1.87203L6.42957 3.00558C6.44685 3.05411 6.48098 3.09259 6.5241 3.11202L7.53123 3.56578C7.67351 3.6299 7.67351 3.8566 7.53123 3.92067L6.5241 4.37443C6.48098 4.39386 6.4468 4.43234 6.42957 4.48082L6.02644 5.61437C5.96951 5.77452 5.76809 5.77452 5.71111 5.61437L5.30798 4.48082C5.2907 4.43229 5.25657 4.39381 5.21345 4.37443L4.20632 3.92067C4.06404 3.85656 4.06404 3.62985 4.20632 3.56578L5.21345 3.11202C5.25657 3.09259 5.29075 3.05411 5.30798 3.00558L5.71111 1.87203C5.76804 1.71193 5.96946 1.71193 6.02644 1.87203Z" fill="#F4A100"/>
<path d="M18.5308 0.947461L18.8298 1.78833C18.8426 1.82432 18.868 1.85288 18.8999 1.86729L19.647 2.20386C19.7525 2.25142 19.7525 2.41958 19.647 2.46714L18.8999 2.80371C18.868 2.81812 18.8426 2.84663 18.8298 2.88267L18.5308 3.72354C18.4886 3.84233 18.3391 3.84233 18.2969 3.72354L17.9979 2.88267C17.9851 2.84668 17.9598 2.81812 17.9278 2.80371L17.1807 2.46714C17.0752 2.41958 17.0752 2.25142 17.1807 2.20386L17.9278 1.86729C17.9598 1.85288 17.9851 1.82432 17.9979 1.78833L18.2969 0.947461C18.3391 0.828711 18.4885 0.828711 18.5308 0.947461Z" fill="#F4A100"/>
<path d="M12.2123 5.51543C12.6985 5.51543 13.0926 5.12132 13.0926 4.63516C13.0926 4.14899 12.6985 3.75488 12.2123 3.75488C11.7261 3.75488 11.332 4.14899 11.332 4.63516C11.332 5.12132 11.7261 5.51543 12.2123 5.51543Z" fill="#F4A100"/>
<path d="M20.5692 5.85029C20.7789 5.85029 20.9489 5.68028 20.9489 5.47056C20.9489 5.26083 20.7789 5.09082 20.5692 5.09082C20.3595 5.09082 20.1895 5.26083 20.1895 5.47056C20.1895 5.68028 20.3595 5.85029 20.5692 5.85029Z" fill="#F4A100"/>
<path d="M24.1844 20.0568L22.3535 13.9573C22.1641 13.3264 21.68 12.8561 21.0762 12.6759C21.1228 12.4891 21.1479 12.294 21.1479 12.093C21.1479 10.7591 20.0627 9.67388 18.7288 9.67388C18.6332 9.67388 18.5381 9.67949 18.4439 9.69067C18.4467 9.64307 18.4482 9.59531 18.4482 9.54761C18.4482 8.21367 17.363 7.12842 16.0291 7.12842C15.113 7.12842 14.3061 7.63003 13.8952 8.404C13.596 8.27607 13.2718 8.20835 12.9437 8.20835C12.5441 8.20835 12.1525 8.30894 11.8046 8.49453C11.4101 7.68042 10.5747 7.12842 9.62681 7.12842C8.29287 7.12842 7.20766 8.21367 7.20766 9.54761C7.20766 9.59233 7.20889 9.63701 7.21138 9.68159C6.29243 10.0341 5.66499 10.919 5.66499 11.9388C5.66499 12.1864 5.70273 12.4253 5.77226 12.6505C5.1207 12.8111 4.58154 13.3104 4.38882 13.973L2.62061 20.0518C1.64478 20.1316 0.875 20.9507 0.875 21.9468V22.2397C0.875 23.2885 1.72822 24.1417 2.777 24.1417H23.973C25.0218 24.1417 25.875 23.2885 25.875 22.2397V21.9468C25.875 20.9695 25.134 20.1623 24.1844 20.0568ZM7.84302 10.5217C7.97886 10.4988 8.09883 10.4198 8.17363 10.3041C8.24839 10.1884 8.27114 10.0466 8.23618 9.91333C8.20498 9.79424 8.18916 9.67119 8.18916 9.54756C8.18916 8.75483 8.83408 8.10991 9.62681 8.10991C10.3501 8.10991 10.9631 8.65039 11.0526 9.36714C11.0762 9.55576 11.2066 9.71387 11.3874 9.77285C11.5681 9.83184 11.7666 9.7811 11.897 9.64268C12.1719 9.35068 12.5436 9.18984 12.9436 9.18984C13.2735 9.18984 13.584 9.29888 13.8414 9.50513C13.9735 9.61099 14.1508 9.64136 14.3105 9.58535C14.4702 9.52944 14.5899 9.39512 14.6271 9.23003C14.7733 8.58101 15.3629 8.10991 16.0291 8.10991C16.8218 8.10991 17.4667 8.75483 17.4667 9.54756C17.4667 9.7811 17.4121 10.0042 17.3044 10.2107C17.2029 10.4055 17.2431 10.644 17.403 10.7947C17.5627 10.9454 17.8033 10.9715 17.9917 10.8586C18.2138 10.7256 18.4687 10.6553 18.7288 10.6553C19.5215 10.6553 20.1664 11.3002 20.1664 12.093C20.1664 12.2697 20.1338 12.4388 20.0752 12.5953H6.80591C6.70425 12.3983 6.64643 12.1752 6.64643 11.9387C6.64643 11.2345 7.14966 10.6386 7.84302 10.5217ZM5.3312 14.2472C5.446 13.8525 5.81323 13.5769 6.22422 13.5769H20.5226C20.9364 13.5769 21.2944 13.8432 21.4134 14.2395L23.156 20.0448H3.64482L5.3312 14.2472ZM24.8935 22.2397C24.8935 22.7473 24.4806 23.1602 23.973 23.1602H2.777C2.26948 23.1602 1.85654 22.7473 1.85654 22.2397V21.9468C1.85654 21.4392 2.26948 21.0263 2.777 21.0263H23.973C24.4806 21.0263 24.8935 21.4392 24.8935 21.9468L24.8935 22.2397Z" fill="#F4A100"/>
<path d="M15.8623 19.0668C15.1697 19.0668 14.5934 18.5596 14.4852 17.8972H12.2645C12.1563 18.5596 11.58 19.0668 10.8875 19.0668C10.1181 19.0668 9.49219 18.4409 9.49219 17.6715C9.49219 17.3608 9.59448 17.0642 9.77964 16.823C9.59453 16.5818 9.49219 16.2851 9.49219 15.9744C9.49219 15.205 10.1181 14.5791 10.8875 14.5791C11.58 14.5791 12.1563 15.0863 12.2645 15.7487H14.4852C14.5934 15.0863 15.1697 14.5791 15.8622 14.5791C16.6316 14.5791 17.2575 15.205 17.2575 15.9744C17.2575 16.2851 17.1551 16.5818 16.97 16.823C17.1551 17.0642 17.2575 17.3609 17.2575 17.6715C17.2575 18.4409 16.6316 19.0668 15.8623 19.0668ZM11.9859 17.3083H14.7637C14.8449 17.3083 14.9226 17.3418 14.9782 17.4009C15.0338 17.4601 15.0626 17.5396 15.0576 17.6207C15.0566 17.6375 15.0558 17.6544 15.0558 17.6715C15.0558 18.1162 15.4175 18.4779 15.8622 18.4779C16.3068 18.4779 16.6685 18.1162 16.6685 17.6715C16.6685 17.4304 16.5618 17.2039 16.3757 17.0499C16.3081 16.9939 16.2689 16.9107 16.2689 16.823C16.2689 16.7352 16.3081 16.652 16.3757 16.596C16.5618 16.4421 16.6685 16.2155 16.6685 15.9744C16.6685 15.5297 16.3068 15.168 15.8622 15.168C15.4175 15.168 15.0558 15.5297 15.0558 15.9744C15.0558 15.9915 15.0566 16.0084 15.0576 16.0252C15.0626 16.1063 15.0338 16.1858 14.9782 16.2449C14.9226 16.3041 14.8449 16.3376 14.7637 16.3376H11.9859C11.9047 16.3376 11.827 16.304 11.7714 16.2448C11.7157 16.1855 11.687 16.106 11.6921 16.0249C11.6931 16.0082 11.6938 15.9913 11.6938 15.9743C11.6938 15.5297 11.3321 15.168 10.8875 15.168C10.4429 15.168 10.0812 15.5297 10.0812 15.9743C10.0812 16.2155 10.1878 16.442 10.3739 16.596C10.4416 16.652 10.4807 16.7351 10.4807 16.8229C10.4807 16.9106 10.4416 16.9938 10.3739 17.0498C10.1878 17.2038 10.0812 17.4303 10.0812 17.6715C10.0812 18.1161 10.4429 18.4778 10.8875 18.4778C11.3321 18.4778 11.6938 18.1161 11.6938 17.6715C11.6938 17.6545 11.6931 17.6376 11.6921 17.6209C11.687 17.5398 11.7157 17.4603 11.7714 17.401C11.8271 17.3418 11.9047 17.3083 11.9859 17.3083Z" fill="#F4A100"/>
<path d="M6.02048 18.1005C5.97775 18.1005 5.9343 18.0949 5.89108 18.0831C5.62961 18.0118 5.47541 17.742 5.5467 17.4805C5.56652 17.4077 5.6069 17.1934 5.63928 17.0212C5.68908 16.7567 5.72136 16.5886 5.74953 16.4853C5.82082 16.2238 6.0904 16.0697 6.35212 16.1409C6.61359 16.2122 6.76779 16.482 6.6965 16.7435C6.67668 16.8162 6.6363 17.0306 6.60393 17.2027C6.55412 17.4673 6.52185 17.6353 6.49372 17.7387C6.43415 17.957 6.23635 18.1005 6.02048 18.1005Z" fill="#F4A100"/>
<path d="M6.59858 15.5351C6.55581 15.5351 6.51235 15.5295 6.46914 15.5176C6.20766 15.4463 6.05351 15.1765 6.12485 14.915L6.20175 14.6329C6.27299 14.3714 6.54282 14.2171 6.80429 14.2884C7.06582 14.3597 7.22001 14.6294 7.14877 14.8909L7.07177 15.1734C7.0122 15.3916 6.8144 15.5351 6.59858 15.5351Z" fill="#F4A100"/>
<path d="M13.7339 11.5597C13.5713 11.5597 13.4395 11.4279 13.4395 11.2652V10.6714C13.4395 10.5088 13.5713 10.377 13.7339 10.377C13.8965 10.377 14.0284 10.5088 14.0284 10.6714V11.2652C14.0284 11.4278 13.8965 11.5597 13.7339 11.5597Z" fill="#F4A100"/>
<path d="M15.9175 12.0245C15.7549 12.0245 15.623 11.8927 15.623 11.7301V11.1363C15.623 10.9737 15.7549 10.8418 15.9175 10.8418C16.0801 10.8418 16.212 10.9736 16.212 11.1363V11.7301C16.212 11.8927 16.0801 12.0245 15.9175 12.0245Z" fill="#F4A100"/>
</g>
<defs>
<clipPath id="clip0_1101_117">
<rect width="25" height="25" fill="white" transform="translate(0.875)"/>
</clipPath>
</defs>
</svg>
