<svg width="26" height="26" viewBox="0 0 26 26" fill="none" xmlns="http://www.w3.org/2000/svg">
<g clip-path="url(#clip0_1101_111)">
<path d="M25.3517 11.4614L23.6471 9.69649C23.5155 9.5607 23.4528 9.36812 23.4793 9.18101L23.8216 6.7521C23.9622 5.75616 23.2958 4.84048 22.3059 4.66724L19.8897 4.24351C19.7032 4.21089 19.539 4.09141 19.4509 3.92359L18.3029 1.75786C17.8314 0.868167 16.7534 0.518069 15.8492 0.961086L13.6467 2.03911C13.4764 2.12241 13.2736 2.12241 13.1034 2.03911L10.9009 0.961086C9.99607 0.51802 8.91921 0.868118 8.44719 1.75786L7.29915 3.92359C7.20979 4.0938 7.04924 4.20972 6.86033 4.24351L4.4447 4.66724C3.45418 4.83985 2.7884 5.75616 2.92903 6.75147L3.27068 9.18096C3.29724 9.37051 3.23689 9.55879 3.10291 9.69644L1.39832 11.4614C0.700562 12.1833 0.700562 13.3156 1.39832 14.0376L3.10291 15.8025C3.2345 15.9383 3.29724 16.1309 3.27068 16.318L2.92844 18.7469C2.78782 19.7428 3.45417 20.6585 4.44407 20.8317L6.86028 21.2555C7.0468 21.2881 7.21096 21.4076 7.2991 21.5754L8.44714 23.7411C8.91916 24.6308 9.99661 24.9809 10.9008 24.5379L13.1033 23.4599C13.2736 23.3766 13.4764 23.3766 13.6466 23.4599L15.8491 24.5379C16.1141 24.6677 16.3936 24.7293 16.6688 24.7293C17.3328 24.7293 17.9696 24.3701 18.3028 23.7412L19.4508 21.5754C19.5402 21.4052 19.7007 21.2894 19.8896 21.2555L22.3052 20.8318C23.2958 20.6592 23.9615 19.7429 23.8209 18.7476L23.4792 16.3181C23.4527 16.1285 23.513 15.9402 23.647 15.8026L25.3516 14.0377C26.0495 13.3157 26.0495 12.1834 25.3517 11.4614ZM24.4626 13.1793L22.758 14.943C22.3578 15.357 22.1749 15.9208 22.2552 16.4906L22.5968 18.9195C22.6439 19.2515 22.4218 19.5569 22.0923 19.6149L19.6754 20.0386C19.108 20.1382 18.6281 20.4877 18.3584 20.9965L17.2103 23.1617C17.0534 23.4586 16.6948 23.5757 16.3925 23.4279L14.1899 22.3492C13.9352 22.2249 13.6551 22.1621 13.3751 22.1621C13.095 22.1621 12.8149 22.2249 12.5602 22.3498L10.3577 23.4272C10.0565 23.5757 9.69675 23.4586 9.53982 23.1617L8.39177 20.996C8.12195 20.4865 7.64148 20.1376 7.07351 20.0386L4.65789 19.6143C4.32834 19.5564 4.10618 19.2516 4.15266 18.9195L4.4949 16.4906C4.57517 15.9208 4.39226 15.3571 3.9927 14.9436L2.28752 13.1793C2.05515 12.9378 2.05515 12.5612 2.28752 12.3197L3.99211 10.556C4.39231 10.1419 4.57517 9.57818 4.4949 9.00835L4.15325 6.57945C4.10618 6.24746 4.3283 5.94204 4.65784 5.88409L7.07468 5.46035C7.64207 5.36074 8.12195 5.01128 8.39172 4.50244L9.53977 2.33731C9.6967 2.04033 10.0565 1.92447 10.3576 2.0711L12.5602 3.14976C13.0696 3.39844 13.6804 3.39903 14.1899 3.14917L16.3925 2.07178C16.6943 1.92329 17.0534 2.04038 17.2103 2.33736L18.3584 4.50308C18.6282 5.0125 19.1087 5.36143 19.6766 5.4604L22.0923 5.88472C22.4218 5.94268 22.644 6.24746 22.5975 6.57949L22.2552 9.0084C22.175 9.57823 22.3579 10.1419 22.7574 10.5554L24.4626 12.3197C24.695 12.5612 24.695 12.9378 24.4626 13.1793Z" fill="#F4A100"/>
<path d="M17.521 8.60394C17.2796 8.36249 16.8885 8.36249 16.647 8.60394L9.22992 16.021C8.98846 16.2625 8.98846 16.6536 9.22992 16.8951C9.35062 17.0158 9.50878 17.0762 9.66693 17.0762C9.82509 17.0762 9.98324 17.0158 10.1039 16.8951L17.521 9.47797C17.7624 9.23651 17.7624 8.8454 17.521 8.60394Z" fill="#F4A100"/>
<path d="M12.7597 9.66011C12.7597 8.29595 11.6502 7.18652 10.2861 7.18652C8.92192 7.18652 7.8125 8.29595 7.8125 9.66011C7.8125 11.0243 8.92192 12.1337 10.2861 12.1337C11.6502 12.1337 12.7597 11.0243 12.7597 9.66011ZM9.04873 9.66011C9.04873 8.97803 9.60405 8.42271 10.2861 8.42271C10.9682 8.42271 11.5235 8.97803 11.5235 9.66011C11.5235 10.3422 10.9682 10.8975 10.2861 10.8975C9.604 10.8975 9.04873 10.3422 9.04873 9.66011Z" fill="#F4A100"/>
<path d="M16.4658 13.3652C15.1016 13.3652 13.9922 14.4747 13.9922 15.8388C13.9922 17.203 15.1016 18.3124 16.4658 18.3124C17.8299 18.3124 18.9394 17.203 18.9394 15.8388C18.9394 14.4747 17.8299 13.3652 16.4658 13.3652ZM16.4658 17.0762C15.7837 17.0762 15.2284 16.5208 15.2284 15.8388C15.2284 15.1567 15.7837 14.6014 16.4658 14.6014C17.1479 14.6014 17.7032 15.1567 17.7032 15.8388C17.7032 16.5208 17.1479 17.0762 16.4658 17.0762Z" fill="#F4A100"/>
</g>
<defs>
<clipPath id="clip0_1101_111">
<rect width="25" height="25" fill="white" transform="translate(0.875 0.25)"/>
</clipPath>
</defs>
</svg>
